<svg id="Capa_1" enable-background="new 0 0 512 512" height="512" viewBox="0 0 512 512" width="512" xmlns="http://www.w3.org/2000/svg" xmlns:xlink="http://www.w3.org/1999/xlink"><linearGradient id="SVGID_1_" gradientUnits="userSpaceOnUse" x1="195.32" x2="322.32" y1="90.127" y2="461.127"><stop offset=".0112" stop-color="#dcfdee"/><stop offset=".3814" stop-color="#e8f1ee"/><stop offset="1" stop-color="#ffdbed"/></linearGradient><path d="m501.873 152.801c-22.357-56.888-91.226-91.003-149.556-68.427-66.582 25.769-44.506 131.673-104.983 153.088-32.669 11.568-80.963-31.644-113.969-38.27-60.821-12.21-115.881 30.705-129.439 90.134-13.832 60.63 8.353 141.61 74.967 158.066 79.35 19.602 120.683-51.729 187.249-72.211 68.31-21.019 144.263 28.622 200.814-31.776 41.78-44.621 57.055-134.272 34.917-190.604z" fill="url(#SVGID_1_)"/><path d="m374.322 391.074h-60.424v-82.095c.063.037.121.078.184.114 15.645 9.033 37.187 1.011 48.115-17.916 10.928-18.928 7.103-41.594-8.542-50.627-12.282-7.091-28.195-3.668-39.757 7.286v-26.195c0-5.523-4.477-10-10-10h-35.293c4.658-14.764 11.871-28.732 21.25-41.339 8.85-11.895 14.088-26.635 14.088-42.602 0-40.056-32.945-72.417-73.217-71.464-38.123.902-69.125 32.149-69.743 70.278-.273 16.809 5.26 32.312 14.724 44.642 9.374 12.215 16.36 25.947 20.828 40.484h-29.267c-4.619 0-8.637 3.163-9.721 7.653l-20.668 85.596c-1.519 6.292 3.248 12.347 9.721 12.347h18.345l-4.467 72.892c-.352 5.753 4.218 10.612 9.981 10.612h46.365v44.9c0 5.523 4.477 10 10 10h53.257v13.813c0 5.15 4.18 9.33 9.33 9.33h84.91c5.15 0 9.33-4.18 9.33-9.33v-69.05c.001-5.149-4.179-9.329-9.329-9.329z" fill="#2626bc" opacity=".11"/><path d="m371.655 222.55c-12.282-7.091-28.195-3.668-39.757 7.286v-26.195c0-5.523-4.477-10-10-10h-136.63c-4.619 0-8.637 3.163-9.721 7.653l-20.668 85.596c-1.519 6.292 3.248 12.347 9.721 12.347h18.345l-4.467 72.892c-.353 5.753 4.218 10.612 9.981 10.612h46.365v44.9c0 5.523 4.477 10 10 10h77.073c5.523 0 10-4.477 10-10v-136.662c.063.037.121.078.184.114 15.645 9.033 37.187 1.011 48.115-17.916 10.929-18.927 7.105-41.594-8.541-50.627z" fill="#d2deff"/><path d="m212.565 260.642v20.023c0 5.523 4.477 10 10 10h55.785c5.523 0 10-4.477 10-10v-20.023z" fill="#b7c5ff"/><path d="m401.652 382.404v69.05c0 5.15-4.18 9.33-9.33 9.33h-84.91c-5.15 0-9.33-4.18-9.33-9.33v-69.05c0-5.15 4.18-9.33 9.33-9.33h84.91c5.15 0 9.33 4.18 9.33 9.33z" fill="#9fb0fe"/><path d="m339.294 402.393h-16.707c-2.762 0-5-2.239-5-5s2.238-5 5-5h16.707c2.762 0 5 2.239 5 5s-2.239 5-5 5z" fill="#dcfdee"/><path d="m401.652 382.404v69.05c0 5.15-4.18 9.33-9.33 9.33h-16.4c5.15 0 9.33-4.18 9.33-9.33v-69.05c0-5.15-4.18-9.33-9.33-9.33h16.4c5.15 0 9.33 4.18 9.33 9.33z" fill="#b7c5ff"/><path d="m401.652 400.484v50.97c0 5.15-4.18 9.33-9.33 9.33h-84.91c-5.15 0-9.33-4.18-9.33-9.33v-15.65h17.6c2.65 0 5.2-1.05 7.07-2.93l13.28-13.28c1.88-1.87 4.42-2.93 7.08-2.93h38.22c1.36 0 2.69-.28 3.92-.8 1.17-.5 2.24-1.21 3.15-2.13z" fill="#97ffd2"/><path d="m401.652 400.484v50.97c0 5.15-4.18 9.33-9.33 9.33h-16.4c5.15 0 9.33-4.18 9.33-9.33v-35.59c1.17-.5 2.24-1.21 3.15-2.13z" fill="#dcfdee"/><path d="m250.27 344.8c0 .486-.024.96-.061 1.434-.729 8.728-8.047 15.584-16.946 15.584-3.452 0-6.674-1.033-9.348-2.808-4.619-3.039-7.658-8.266-7.658-14.211 0-9.385 7.61-17.007 17.007-17.007 9.384.002 17.006 7.624 17.006 17.008z" fill="#ff7eb8"/><path d="m250.209 346.235c-.729 8.728-8.047 15.584-16.946 15.584-3.452 0-6.674-1.033-9.348-2.808.729-8.728 8.035-15.572 16.946-15.572 3.452 0 6.673 1.021 9.348 2.796z" fill="#ffc4df"/><path d="m248.726 38.237c-38.123.902-69.125 32.149-69.743 70.278-.273 16.809 5.26 32.312 14.724 44.642 16.628 21.667 25.748 48.107 26.612 75.347h60.272c.922-27.568 10.743-53.996 27.264-76.201 8.85-11.895 14.088-26.635 14.088-42.602-.001-40.056-32.946-72.417-73.217-71.464z" fill="#ffc4df"/><path d="m321.943 109.702c0 15.97-5.24 30.71-14.09 42.6-16.52 22.21-26.34 48.63-27.26 76.2h-14.76c.92-27.57 10.74-53.99 27.26-76.2 8.85-11.89 14.09-26.63 14.09-42.6 0-36.99-28.08-67.42-64.1-71.1 1.86-.2 3.74-.32 5.64-.36 40.27-.96 73.22 31.4 73.22 71.46z" fill="#ffdbed"/><path d="m278.35 276.903h-55.785c-5.523 0-10-4.477-10-10v-32.674c0-5.523 4.477-10 10-10h55.785c5.523 0 10 4.477 10 10v32.674c0 5.523-4.477 10-10 10z" fill="#dcfdee"/><path d="m394.23 345.408c-3.74 0-7.479-1.423-10.326-4.271-5.693-5.693-5.693-14.957 0-20.65 2.758-2.759 6.425-4.278 10.326-4.278s7.568 1.52 10.326 4.278c5.693 5.693 5.693 14.957 0 20.65v.001c-2.847 2.846-6.586 4.27-10.326 4.27zm6.791-7.806h.01zm-6.791-11.394c-1.229 0-2.385.479-3.254 1.349-1.795 1.795-1.795 4.715 0 6.51 1.794 1.793 4.714 1.794 6.51-.001 1.794-1.794 1.794-4.714 0-6.509-.87-.869-2.026-1.349-3.256-1.349z" fill="#8399fe"/><path d="m424.692 240.928c-3.74 0-7.479-1.423-10.326-4.271-5.694-5.693-5.694-14.958 0-20.651 5.694-5.694 14.958-5.693 20.651-.001 5.694 5.694 5.694 14.959 0 20.652v.001c-2.846 2.846-6.586 4.27-10.325 4.27zm6.79-7.806h.01zm-6.79-11.391c-1.179 0-2.357.449-3.254 1.346-1.795 1.795-1.795 4.716 0 6.511 1.794 1.793 4.714 1.794 6.51-.001 1.794-1.794 1.794-4.715 0-6.51-.899-.897-2.077-1.346-3.256-1.346z" fill="#8399fe"/><path d="m126.337 265.176h-3.25v-3.25c0-2.762-2.239-5-5-5s-5 2.238-5 5v3.25h-3.25c-2.761 0-5 2.238-5 5s2.239 5 5 5h3.25v3.25c0 2.762 2.239 5 5 5s5-2.238 5-5v-3.25h3.25c2.761 0 5-2.238 5-5s-2.238-5-5-5z" fill="#ff7eb8"/><path d="m462.25 243.566h-3.25v-3.25c0-2.762-2.239-5-5-5s-5 2.238-5 5v3.25h-3.25c-2.761 0-5 2.238-5 5s2.239 5 5 5h3.25v3.25c0 2.762 2.239 5 5 5s5-2.238 5-5v-3.25h3.25c2.761 0 5-2.238 5-5s-2.239-5-5-5z" fill="#ff7eb8"/><path d="m124.21 154.69h-3.25v-3.25c0-2.762-2.239-5-5-5s-5 2.238-5 5v3.25h-3.25c-2.761 0-5 2.238-5 5s2.239 5 5 5h3.25v3.25c0 2.762 2.239 5 5 5s5-2.238 5-5v-3.25h3.25c2.761 0 5-2.238 5-5s-2.239-5-5-5z" fill="#01eca5"/><path d="m365.38 198.642h-15.482c-2.761 0-5-2.238-5-5s2.239-5 5-5h15.482c2.761 0 5 2.238 5 5s-2.239 5-5 5z" fill="#8399fe"/><path d="m399.38 198.642h-15.482c-2.761 0-5-2.238-5-5s2.239-5 5-5h15.482c2.761 0 5 2.238 5 5s-2.239 5-5 5z" fill="#8399fe"/><path d="m125.828 198.642h-15.481c-2.761 0-5-2.238-5-5s2.239-5 5-5h15.481c2.761 0 5 2.238 5 5s-2.239 5-5 5z" fill="#8399fe"/><path d="m159.828 198.642h-15.481c-2.761 0-5-2.238-5-5s2.239-5 5-5h15.481c2.761 0 5 2.238 5 5s-2.239 5-5 5z" fill="#8399fe"/><path d="m182.828 442.642h-15.481c-2.761 0-5-2.238-5-5s2.239-5 5-5h15.481c2.761 0 5 2.238 5 5s-2.239 5-5 5z" fill="#8399fe"/><path d="m216.828 442.642h-15.481c-2.761 0-5-2.238-5-5s2.239-5 5-5h15.481c2.761 0 5 2.238 5 5s-2.239 5-5 5z" fill="#8399fe"/><path d="m264.285 346.806c-2.761 0-5-2.238-5-5 0-12.695-10.329-23.024-23.025-23.024-2.761 0-5-2.238-5-5s2.239-5 5-5c18.21 0 33.025 14.814 33.025 33.024 0 2.762-2.239 5-5 5z" fill="#9fb0fe"/><path d="m264.285 155.979c-2.761 0-5 2.238-5 5v9.223c-2.677 1.576-5.685 2.414-8.828 2.414s-6.15-.837-8.828-2.414v-9.223c0-2.762-2.239-5-5-5s-5 2.238-5 5v63.251c0 2.762 2.239 5 5 5s5-2.238 5-5v-17.267c2.813.956 5.781 1.451 8.828 1.451s6.014-.495 8.828-1.451v17.266c0 2.762 2.239 5 5 5s5-2.238 5-5v-63.251c0-2.761-2.239-4.999-5-4.999zm-5 40.022c-2.677 1.576-5.685 2.414-8.828 2.414s-6.15-.837-8.828-2.414v-14.836c2.813.956 5.781 1.451 8.828 1.451s6.014-.495 8.828-1.451z" fill="#ff7eb8"/><g fill="#2626bc"><path d="m392.323 368.074h-84.908c-7.902 0-14.331 6.429-14.331 14.33v50.237h-48.26c-2.757 0-5-2.243-5-5v-39.9h20.256c4.007 0 7.773-1.561 10.606-4.394l3.375-3.374c1.953-1.953 1.953-5.119 0-7.071-1.951-1.952-5.118-1.952-7.071-.001l-3.375 3.375c-.944.944-2.2 1.465-3.535 1.465h-71.62c-1.394 0-2.687-.56-3.642-1.574-.955-1.016-1.434-2.341-1.349-3.732l4.179-68.197h5.203c5.86 0 11.217-3.445 13.648-8.776l.547-1.2c1.146-2.513.038-5.479-2.475-6.624-2.512-1.148-5.478-.038-6.624 2.474l-.547 1.201c-.811 1.777-2.597 2.926-4.55 2.926h-28.25c-1.542 0-2.974-.695-3.928-1.907s-1.294-2.768-.932-4.267l20.667-85.596c.544-2.253 2.542-3.826 4.86-3.826h25.511c2.03 7.374 3.4 14.978 4.085 22.74-4.364 2.626-7.298 7.394-7.298 12.848v32.674c0 8.271 6.729 15 15 15h55.785c8.271 0 15-6.729 15-15v-32.675c0-5.448-2.929-10.212-7.285-12.84.714-7.681 2.15-15.29 4.272-22.748h31.56c2.757 0 5 2.243 5 5v26.194c0 1.998 1.189 3.804 3.024 4.593 1.834.791 3.965.411 5.415-.963 10.242-9.705 23.833-12.352 33.818-6.586 13.232 7.64 16.244 27.287 6.712 43.797-4.705 8.149-11.703 14.278-19.703 17.258-7.646 2.847-15.292 2.439-21.534-1.145l-.18-.11c-1.546-.92-3.465-.936-5.026-.047-1.562.89-2.526 2.549-2.526 4.346v53.996c0 2.762 2.239 5 5 5s5-2.238 5-5v-46.441c7.149 2.053 14.999 1.661 22.756-1.228 10.175-3.788 19.008-11.47 24.874-21.629 12.289-21.285 7.636-47.06-10.372-57.457-11.128-6.426-25.173-5.614-37.257 1.579v-16.157c0-8.271-6.729-15-15-15h-28.274c4.394-11.725 10.509-22.961 18.242-33.354 9.863-13.256 15.077-29.02 15.077-45.586 0-20.772-8.186-40.206-23.049-54.723-14.859-14.511-34.5-22.229-55.286-21.741-19.735.468-38.333 8.514-52.367 22.656-14.033 14.142-21.937 32.801-22.257 52.54-.283 17.45 5.166 33.968 15.757 47.768 7.577 9.873 13.558 20.802 17.839 32.44h-22.311c-6.953 0-12.949 4.721-14.581 11.479l-20.667 85.596c-1.086 4.498-.067 9.164 2.795 12.8 2.862 3.637 7.158 5.722 11.786 5.722h13.03l-4.142 67.586c-.252 4.113 1.223 8.193 4.046 11.195 2.823 3.001 6.806 4.723 10.926 4.723h41.365v39.9c0 8.271 6.729 15 15 15h48.26v8.809c0 7.902 6.429 14.331 14.331 14.331h30.535c2.761 0 5-2.238 5-5s-2.239-5-5-5h-30.535c-2.388 0-4.331-1.943-4.331-4.331v-10.646h12.598c3.962 0 7.831-1.604 10.606-4.395l13.271-13.271c.956-.951 2.218-1.475 3.554-1.475h38.22c2.017 0 3.99-.401 5.885-1.202 1.796-.768 3.391-1.848 4.721-3.192l4.715-4.715v38.896c0 2.388-1.942 4.331-4.33 4.331h-26.277c-2.761 0-5 2.238-5 5s2.239 5 5 5h26.273c7.902 0 14.33-6.429 14.33-14.331v-69.046c0-7.903-6.428-14.332-14.33-14.332zm-108.973-101.17c0 2.757-2.243 5-5 5h-55.785c-2.757 0-5-2.243-5-5v-32.674c0-2.757 2.243-5 5-5h55.785c2.757 0 5 2.243 5 5zm-99.368-158.308c.278-17.145 7.152-33.359 19.357-45.658 12.205-12.3 28.366-19.297 45.505-19.702 18.075-.465 35.147 6.284 48.063 18.897 12.92 12.618 20.036 29.512 20.036 47.568 0 14.4-4.53 28.1-13.1 39.617-15.562 20.916-25.063 45.035-27.61 69.911h-51.523c-2.472-25.392-11.769-49.221-27.038-69.116-9.202-11.991-13.936-26.347-13.69-41.517zm200.866 301.622c-.435.439-.959.792-1.541 1.04-.638.27-1.302.406-1.975.406h-38.22c-3.997 0-7.764 1.558-10.616 4.395l-13.289 13.289c-.92.926-2.206 1.456-3.525 1.456h-12.598v-48.399c0-2.388 1.943-4.33 4.331-4.33h84.908c2.388 0 4.33 1.942 4.33 4.33v16.008z"/><path d="m345.922 108.122c0 2.762 2.239 5 5 5h10.247c2.761 0 5-2.238 5-5s-2.239-5-5-5h-10.247c-2.761 0-5 2.239-5 5z"/><path d="m345.198 90.32c1.016 0 2.041-.308 2.926-.948l10.247-7.41c2.237-1.618 2.74-4.744 1.122-6.981-1.619-2.238-4.744-2.74-6.982-1.122l-10.247 7.41c-2.237 1.618-2.74 4.744-1.122 6.981.978 1.352 2.506 2.07 4.056 2.07z"/><path d="m348.124 126.874c-2.237-1.617-5.363-1.116-6.981 1.122-1.618 2.237-1.116 5.363 1.122 6.981l10.247 7.409c.886.641 1.91.948 2.926.948 1.55 0 3.078-.718 4.056-2.07 1.618-2.237 1.116-5.363-1.122-6.981z"/><path d="m151.606 108.122c0-2.762-2.239-5-5-5h-10.247c-2.761 0-5 2.238-5 5s2.239 5 5 5h10.247c2.761 0 5-2.238 5-5z"/><path d="m139.157 81.961 10.247 7.41c.885.641 1.91.948 2.926.948 1.55 0 3.078-.718 4.056-2.07 1.618-2.237 1.116-5.363-1.122-6.981l-10.247-7.41c-2.235-1.617-5.362-1.116-6.981 1.122-1.619 2.237-1.117 5.363 1.121 6.981z"/><path d="m156.386 127.996c-1.618-2.239-4.745-2.739-6.981-1.122l-10.247 7.409c-2.238 1.618-2.74 4.744-1.122 6.981.978 1.353 2.506 2.07 4.056 2.07 1.016 0 2.04-.308 2.926-.948l10.247-7.409c2.236-1.617 2.739-4.743 1.121-6.981z"/></g><path d="m268.032 247.328h-35.519c-2.761 0-5-2.238-5-5s2.239-5 5-5h35.519c2.761 0 5 2.238 5 5s-2.239 5-5 5z" fill="#02ffb3"/><path d="m268.032 264.315h-35.519c-2.761 0-5-2.238-5-5s2.239-5 5-5h35.519c2.761 0 5 2.238 5 5s-2.239 5-5 5z" fill="#02ffb3"/></svg>