<?xml version="1.0" encoding="iso-8859-1"?>
<!-- Generator: Adobe Illustrator 19.0.0, SVG Export Plug-In . SVG Version: 6.00 Build 0)  -->
<svg version="1.1" id="Capa_1" xmlns="http://www.w3.org/2000/svg" xmlns:xlink="http://www.w3.org/1999/xlink" x="0px" y="0px"
	 viewBox="0 0 512.001 512.001" style="enable-background:new 0 0 512.001 512.001;" xml:space="preserve">
<path style="fill:#FFCFB4;" d="M354.807,82.855c-3.848,4.609-8.513,8.054-10.766,13.755c-1.772,4.483-3.085,8.793-3.544,13.617
	c-0.465,4.879,0.104,9.206,0.75,13.999c0.353,2.622,1.494,7.488,0.243,9.958c-1.109,2.19-4.776,2.618-6.745,3.723
	c-4.048,2.271-7.594,5.594-11.402,8.261c-1.387,0.971-6.218,3.92-5.321,5.981c0.615,1.414,5.653,2.306,6.898,2.918
	c3.959,1.946,7.859,3.452,11.954,5.057c2.371,0.929,4.778,1.946,5.889,4.332c1.397,2.999,1.634,6.728,1.8,9.953
	c0.298,5.768,0.665,11.567,1.745,17.247c0.834,4.39,2.391,8.126,4.709,11.928c1.873,3.072,4.883,7.521,7.915,9.506
	c7.161,4.689,16.638-0.745,24.342,0.912c5.485,1.18,8.982,7.463,10.815,12.242c2.664,6.945,6.698,16.769,15.256,17.067
	c3.262,0.114,6.309-1.18,9.518-1.541c3.917-0.44,7.386-1.408,11.242-2.183c3.617-0.727,7.356-0.467,10.947-1.399
	c4.191-1.088,8.202-2.689,12.16-4.42c4.937-2.16,10.564-3.7,15.256-6.286c4.621-2.546,4.9-6.85,4.906-11.756
	c0.007-4.992-2.927-8.583-3.829-13.335c-0.778-4.1-2.583-8.673-1.843-12.913c0.534-3.058,2.351-5.877,1.928-9.092
	c-0.517-3.931-4.413-5.969-5.804-9.524c-1.74-4.448,0.804-10.22,2.013-14.568c1.442-5.186,3.683-13.016,1.006-18.207
	c-2.261-4.385-6.173-6.149-11.166-5.915c-2.682,0.126-4.183,2.772-5.757,4.659c-2.848,3.414-4.223,7.52-6.121,11.496
	c-2.613,5.473-1.398,12.314-8.372,14.156c-2.727,0.72-6.42-0.845-9.261-1.02c-3.125-0.192-5.839-1.075-8.806-1.936
	c-1.102-0.32-2.915-0.359-3.377-1.365c-0.243-0.529,0.714-2.872,0.804-3.379c0.341-1.919,0.489-3.866,0.825-5.79
	c0.645-3.687,0.457-7.258,0.767-10.954c0.272-3.255,1.151-4.424-1.222-6.728c-4.376-4.247-10.117-4.628-15.274-7.52
	c-2.821-1.582-6.371-4.356-6.329-7.78c0.053-4.354,0.888-8.268,3.028-12.028c1.058-1.859,3.844-4.556,3.834-6.891
	c-0.008-1.869-1.905-2.712-3.607-3.638c-2.349-1.278-5.662-1.069-8.303-1.367c-5.094-0.575-10.256,0.228-15.344-0.466
	c-4.798-0.654-8.389-1.455-12.198-4.488C359.316,85.819,353.777,80.733,354.807,82.855z"/>
<path style="fill:#604631;" d="M422.25,35.271c-7.117,1.144-13.843,4.2-20.644,6.486c-7.921,2.663-14.403,7.464-21.69,11.403
	c-4.593,2.483-9.211,5.937-12.923,9.634c-2.988,2.977-4.018,7.125-5.698,10.867c-2.809,6.256-4.027,14.063,3.536,17.058
	c7.135,2.826,15.82,3.327,23.407,3.343c2.726,0.006,5.343-0.544,7.943-1.366c1.894-0.599,5.73-2.145,7.565-1.337
	c-2.343,2.488-3.886,5.85-5.634,8.817c-2.822,4.792-7.071,10.458-5.612,16.351c1.262,5.093,5.452,6.043,9.647,8.209
	c2.855,1.474,6.256,1.714,8.943,3.387c8.346,5.197,3.237,19.326,2.655,27.246c-0.343,4.67,1.739,6.43,6.031,7.556
	c2.83,0.743,5.233,0.331,8.084,0.139c2.176-0.147,4.312,0.692,6.234-0.419c1.547-0.893,2.485-2.606,3.138-4.184
	c1.646-3.977,3.495-7.862,4.873-11.946c1.802-5.341,4.532-11.013,9.372-14.21c2.161-1.428,3.847-1.716,6.373-1.468
	c3.249,0.32,4.329,1.63,6.297,4.138c3.888,4.956,3.762,9.976,2.142,15.866c-0.953,3.465-2.43,6.777-3.264,10.281
	c-0.632,2.656-2.304,6.592-1.866,9.298c0.347,2.143,2.931,4.147,4.575,5.389c1.408,1.064,2.963,1.903,4.376,2.967
	c1.047,0.788,2.401,2.508,3.783,2.459c3.308-0.116,6.512-7.883,8.287-10.08c5.269-6.523,10.132-12.932,13.577-20.689
	c3.098-6.975,6.194-14.066,8.325-21.389c1.948-6.696,2.828-12.707,2.913-19.674c0.067-5.435,0.601-10.702-0.976-15.984
	c-1.572-5.263-4.511-10.04-6.746-15.052c-3.755-8.422-8.457-16.998-16.145-22.347c-3.954-2.751-7.451-5.774-11.579-8.307
	c-4.749-2.913-9.301-5.55-14.514-7.596c-5.82-2.284-12.048-3.058-18.175-4.118C434.221,35.196,426.682,34.309,422.25,35.271z"/>
<path style="fill:#926C53;" d="M157.982,310.161c3.848,4.609,8.513,8.054,10.766,13.755c1.772,4.483,3.085,8.793,3.544,13.617
	c0.465,4.879-0.104,9.207-0.75,13.999c-0.353,2.622-1.494,7.488-0.243,9.958c1.109,2.19,4.775,2.618,6.745,3.723
	c4.049,2.271,7.594,5.595,11.402,8.261c1.387,0.971,6.218,3.92,5.321,5.981c-0.615,1.414-5.653,2.306-6.898,2.918
	c-3.959,1.946-7.859,3.452-11.954,5.057c-2.37,0.929-4.778,1.946-5.889,4.332c-1.397,2.999-1.634,6.728-1.8,9.953
	c-0.298,5.768-0.665,11.567-1.745,17.247c-0.834,4.39-2.391,8.126-4.709,11.928c-1.873,3.072-4.883,7.521-7.915,9.506
	c-7.161,4.689-16.638-0.745-24.342,0.912c-5.485,1.18-8.982,7.463-10.815,12.242c-2.664,6.945-6.698,16.769-15.256,17.067
	c-3.262,0.114-6.309-1.18-9.518-1.541c-3.917-0.44-7.386-1.408-11.242-2.183c-3.617-0.727-7.356-0.467-10.946-1.399
	c-4.192-1.088-8.202-2.689-12.16-4.42c-4.937-2.16-10.564-3.7-15.256-6.286c-4.621-2.547-4.9-6.85-4.906-11.756
	c-0.007-4.992,2.927-8.583,3.829-13.335c0.778-4.1,2.583-8.673,1.843-12.913c-0.534-3.058-2.351-5.877-1.928-9.092
	c0.518-3.931,4.413-5.969,5.804-9.524c1.74-4.449-0.804-10.22-2.013-14.568c-1.442-5.186-3.683-13.016-1.006-18.207
	c2.261-4.385,6.173-6.149,11.166-5.915c2.682,0.126,4.183,2.772,5.757,4.659c2.848,3.414,4.222,7.52,6.121,11.496
	c2.613,5.474,1.398,12.314,8.372,14.156c2.727,0.72,6.42-0.845,9.261-1.02c3.125-0.192,5.839-1.075,8.806-1.937
	c1.102-0.32,2.915-0.359,3.377-1.365c0.243-0.529-0.715-2.872-0.804-3.379c-0.341-1.918-0.489-3.866-0.825-5.79
	c-0.645-3.687-0.457-7.258-0.767-10.954c-0.272-3.255-1.151-4.424,1.222-6.728c4.376-4.247,10.117-4.628,15.274-7.52
	c2.821-1.582,6.371-4.356,6.329-7.78c-0.053-4.354-0.888-8.268-3.028-12.028c-1.058-1.859-3.844-4.556-3.834-6.891
	c0.007-1.87,1.905-2.712,3.607-3.638c2.349-1.278,5.661-1.069,8.303-1.367c5.094-0.575,10.256,0.228,15.343-0.466
	c4.798-0.654,8.389-1.455,12.198-4.488C153.473,313.125,159.012,308.039,157.982,310.161z"/>
<path style="fill:#2F2C29;" d="M90.538,262.577c7.117,1.144,13.843,4.2,20.644,6.487c7.921,2.663,14.403,7.464,21.69,11.403
	c4.593,2.483,9.212,5.937,12.923,9.634c2.988,2.977,4.018,7.125,5.698,10.867c2.809,6.255,4.028,14.063-3.536,17.058
	c-7.135,2.826-15.82,3.327-23.407,3.343c-2.726,0.006-5.343-0.544-7.944-1.366c-1.894-0.599-5.73-2.145-7.565-1.337
	c2.343,2.488,3.886,5.85,5.634,8.817c2.823,4.792,7.071,10.458,5.612,16.351c-1.262,5.093-5.452,6.043-9.647,8.209
	c-2.855,1.474-6.256,1.714-8.944,3.388c-8.346,5.197-3.237,19.326-2.655,27.246c0.343,4.67-1.739,6.43-6.031,7.556
	c-2.83,0.743-5.233,0.332-8.084,0.139c-2.176-0.147-4.312,0.692-6.234-0.418c-1.547-0.893-2.485-2.606-3.138-4.184
	c-1.646-3.977-3.495-7.862-4.873-11.946c-1.802-5.341-4.532-11.013-9.372-14.21c-2.161-1.428-3.847-1.716-6.373-1.468
	c-3.249,0.32-4.329,1.63-6.297,4.138c-3.888,4.956-3.762,9.976-2.142,15.866c0.953,3.465,2.43,6.777,3.264,10.281
	c0.632,2.657,2.304,6.592,1.865,9.298c-0.347,2.143-2.931,4.147-4.575,5.389c-1.408,1.064-2.963,1.903-4.376,2.967
	c-1.047,0.788-2.401,2.508-3.783,2.459c-3.308-0.116-6.513-7.883-8.287-10.08c-5.269-6.523-10.132-12.932-13.577-20.689
	c-3.098-6.975-6.194-14.066-8.325-21.389c-1.948-6.696-2.828-12.707-2.913-19.674c-0.067-5.435-0.601-10.702,0.976-15.984
	c1.572-5.263,4.511-10.04,6.746-15.052c3.755-8.422,8.457-16.998,16.145-22.347c3.954-2.751,7.451-5.774,11.58-8.307
	c4.749-2.913,9.301-5.55,14.514-7.596c5.82-2.284,12.048-3.058,18.175-4.118C78.568,262.503,86.106,261.615,90.538,262.577z"/>
<g>
	<path style="fill:#F4F4F4;" d="M223.973,53.891c-4.788-0.222-8.287,1.137-12.771,2.309c-5.674,1.483-11.538-0.595-17.204-1.166
		c-4.667-0.47-9.1-1.593-13.721-2.316c-2.966-0.464-6.314-1.167-9.296-1.263c-2.474-0.08-5.11,0.529-7.632,0.639
		c-5.863,0.255-11.738-0.094-17.558-0.814c-8.159-1.01-16.357-2.645-24.598-2.639c-4.818,0.003-9.478,1.229-14.215,1.378
		c-2.576,0.081-5.007-0.861-7.52-1.26c-2.877-0.456-5.8-0.267-8.699-0.413c-7.282-0.366-14.121,0.986-21.258,2.26
		c-6.312,1.127-12.531,3.236-18.888,3.94c-4.404,0.488-7.426,0.974-10.946,3.785c-2.354,1.88-4.563,3.617-6.15,6.209
		c-1.681,2.744-3.83,5.652-4.863,8.685c-1.417,4.161-1.526,8.696-2.213,13.006c-0.855,5.356-1.64,10.728-2.123,16.132
		c-1.039,11.639-2.683,23.174-3.173,34.858c-0.191,4.543,0.911,8.784,0.847,13.2c-0.084,5.771,0.394,11.433,0.982,17.171
		c0.683,6.664,0.939,13.312,2.293,19.877c1.542,7.477,1.013,15.305,5.688,21.816c2.189,3.049,4.662,3.65,8.201,4.365
		c8.193,1.655,16.282,2.051,24.638,2.117c11.899,0.093,23.927,1.327,35.798,2.126c4.287,0.288,8.745,0.472,13.026,0.011
		c2.628-0.283,5.151-1.295,7.8-1.35c3.781-0.078,7.733,0.684,11.553,0.806c4.562,0.146,9.038,1.193,13.594,1.413
		c4.441,0.214,8.8,0.779,13.248,0.304c4.762-0.507,9.435-1.147,14.218-1.526c7.751-0.615,15.241-2.086,23.097-1.98
		c4.579,0.062,9.272,0.227,13.846,0.487c3.89,0.221,7.648,1.352,11.522,1.654c11.108,0.865,21.647,4.054,32.503,6.43
		c4.859,1.064,9.594,1.871,14.513,2.656c4.88,0.778,8.912,2.97,13.365,4.864c2.996,1.274,6.065,2.15,9.039,3.518
		c10.024,4.61,20.121,7.967,31.233,7.306c-0.833-3.874-3.627-6.68-6.273-9.448c-3.591-3.758-7.273-7.586-10.623-11.556
		c-4.846-5.743-10.46-10.372-12.902-17.702c-1.684-5.052-1.083-10.681-1.298-15.966c-0.404-9.919-0.771-19.911-0.177-29.865
		c0.43-7.209,0.454-14.418,0.959-21.627c0.25-3.576,0.34-7.197,0.83-10.747c0.985-7.139,2.362-14.095,2.722-21.33
		c0.218-4.395-0.693-8.406-1.158-12.722c-0.395-3.671-0.231-7.447-1.449-10.97c-4.044-11.693-14.619-20.132-26.778-22.408
		C252.172,55.557,238.023,54.549,223.973,53.891z"/>
	<path style="fill:#F4F4F4;" d="M286.85,283.357c4.788-0.222,8.287,1.137,12.771,2.309c5.674,1.483,11.538-0.595,17.204-1.166
		c4.667-0.47,9.1-1.593,13.721-2.316c2.966-0.464,6.314-1.167,9.296-1.263c2.474-0.079,5.11,0.529,7.632,0.639
		c5.863,0.255,11.738-0.094,17.558-0.814c8.159-1.01,16.357-2.645,24.598-2.639c4.818,0.003,9.478,1.229,14.215,1.378
		c2.576,0.081,5.007-0.861,7.52-1.26c2.877-0.457,5.801-0.267,8.699-0.413c7.282-0.366,14.121,0.986,21.258,2.26
		c6.312,1.127,12.531,3.236,18.888,3.94c4.405,0.488,7.426,0.974,10.946,3.785c2.354,1.88,4.563,3.617,6.15,6.209
		c1.681,2.744,3.83,5.652,4.863,8.685c1.417,4.161,1.526,8.696,2.214,13.006c0.855,5.356,1.64,10.728,2.123,16.132
		c1.039,11.639,2.683,23.174,3.173,34.858c0.191,4.543-0.911,8.784-0.847,13.2c0.084,5.771-0.394,11.433-0.982,17.171
		c-0.683,6.664-0.939,13.312-2.293,19.877c-1.542,7.477-1.012,15.305-5.688,21.816c-2.189,3.049-4.662,3.65-8.201,4.365
		c-8.193,1.655-16.282,2.051-24.638,2.117c-11.899,0.093-23.927,1.328-35.798,2.126c-4.287,0.288-8.745,0.472-13.026,0.011
		c-2.628-0.283-5.151-1.295-7.8-1.35c-3.781-0.078-7.733,0.684-11.553,0.806c-4.562,0.146-9.038,1.193-13.594,1.413
		c-4.441,0.214-8.8,0.778-13.249,0.304c-4.761-0.507-9.435-1.147-14.218-1.526c-7.751-0.615-15.241-2.086-23.097-1.98
		c-4.58,0.062-9.272,0.227-13.846,0.487c-3.89,0.221-7.648,1.352-11.522,1.654c-11.108,0.865-21.647,4.054-32.503,6.43
		c-4.859,1.064-9.594,1.871-14.513,2.656c-4.88,0.778-8.912,2.97-13.365,4.864c-2.996,1.274-6.065,2.15-9.039,3.518
		c-10.024,4.61-20.121,7.967-31.233,7.306c0.833-3.874,3.627-6.68,6.272-9.448c3.592-3.758,7.273-7.586,10.623-11.556
		c4.846-5.743,10.459-10.372,12.902-17.702c1.684-5.052,1.083-10.681,1.298-15.966c0.404-9.919,0.771-19.911,0.177-29.865
		c-0.43-7.209-0.454-14.418-0.959-21.627c-0.25-3.576-0.34-7.197-0.83-10.747c-0.985-7.139-2.362-14.095-2.722-21.33
		c-0.218-4.395,0.694-8.406,1.159-12.722c0.395-3.671,0.231-7.447,1.449-10.97c4.044-11.693,14.619-20.132,26.778-22.408
		C258.65,285.022,272.8,284.015,286.85,283.357z"/>
</g>
<path style="fill:#FFDC0F;" d="M143.333,86.296c-1.38-0.127-2.419,0.859-3.36,1.734c-2.021,1.881-4.253,3.773-6.063,5.857
	c-3.515,4.044-5.85,9.913-6.511,15.216c-0.896,7.193-1.889,14.392,0.991,21.26c1.298,3.096,3.391,5.692,5.68,8.116
	c1.043,1.105,2.279,1.997,3.246,3.171c0.906,1.1,1.624,2.453,2.749,3.349c1.604,1.278,3.364,2.103,4.251,4.115
	c1.036,2.348,0.381,5.459,0.514,7.966c0.12,2.265-0.123,5.665,1.611,7.366c1.828,1.792,4.961,1.433,7.347,1.578
	c1.275,0.077,2.513,0.436,3.79,0.501c1.616,0.083,3.228-0.201,4.851-0.201c2.032-0.001,4.249,0.041,6.205-0.59
	c1.236-0.399,1.499-0.989,1.757-2.258c0.495-2.43,0.853-4.866,0.866-7.35c0.013-2.424-0.357-5.266,0.167-7.644
	c0.318-1.441,1.375-2.755,2.308-3.863c1.435-1.702,3.391-3.288,5.21-4.551c2.702-1.876,5.265-3.747,7.851-5.782
	c4.192-3.301,9.32-6.355,10.363-12.112c0.361-1.996,0.068-4.882-0.174-6.869c-0.302-2.469-2.167-4.803-3.062-7.111
	c-0.939-2.422-2.155-5.152-3.588-7.31c-1.402-2.11-3.719-3.739-5.612-5.39c-2.327-2.031-5.13-3.345-7.752-4.955
	c-3.087-1.895-6.624-3.53-10.029-4.761c-3.822-1.382-8.288-2.078-12.328-1.409C151.19,84.934,147.576,85.456,143.333,86.296z"/>
<path style="fill:#63635F;" d="M145.299,169.666c-0.606,3.449,1.409,7.864,3.761,10.302c1.699,1.761,4.851,3.048,7.243,3.562
	c4.671,1.005,10.911-2.067,13.774-5.7c1.936-2.457,1.878-5.704,1.664-8.67c-0.052-0.715-0.118-1.391-0.203-2.096
	c-0.062-0.513,0.108-1.565-0.158-2.004c-0.772-1.272-3.123-0.215-4.197,0.033c-3.571,0.826-7.217,0.818-10.868,1.107
	c-2.955,0.234-5.673-0.175-8.585-0.347C145.221,165.706,144.481,167.974,145.299,169.666z"/>
<path style="fill:#71D182;" d="M315.138,310.608c-5.204,1.117-7.663,6.784-12.089,9.307c-1.116,0.636-2.305,1.006-3.261,1.902
	c-3.139,2.944-5.446,7.54-7.514,11.268c-3.207,5.781-6.299,11.55-8.158,17.897c-0.665,2.272-1.191,4.591-1.485,6.941
	c-0.251,2.007-0.02,3.504,0.297,5.432c0.363,2.205,0.342,4.393,0.874,6.594c0.548,2.265,1.305,4.472,2.074,6.67
	c1.295,3.703,3.222,7.11,5.329,10.414c0.83,1.301,1.866,1.924,3.16,2.682c1.48,0.867,2.671,2.093,4.08,3.056
	c2.133,1.459,4.944,1.995,7.278,3.139c2.195,1.077,4.162,2.384,6.54,3.105c2.763,0.837,5.428,1.892,8.26,2.578
	c2.503,0.606,5.461,0.319,8.033,0.076c1.365-0.129,2.63-0.126,4.009-0.076c1.775,0.063,3.071-0.422,4.723-0.995
	c4.961-1.723,10.589-2.824,14.825-6.047c1.194-0.908,2.254-1.934,3.21-3.134c0.991-1.245,4.483-4.699,3.99-6.405
	c-0.221-0.764-2.276-0.786-2.96-0.922c-2.651-0.526-5.557-0.399-8.259-0.393c-2.765,0.006-5.224,0.088-7.719-1.205
	c-1.609-0.834-4.268-1.1-5.029-2.933c-0.567-1.367-0.431-3.174-0.519-4.626c-0.096-1.592-0.246-3.177-0.371-4.767
	c-0.281-3.577-0.422-7.133,0.415-10.643c0.327-1.373,0.678-3.474,1.93-4.315c1.802-1.211,4.418-1.234,6.498-1.323
	c2.164-0.092,4.312-0.475,6.472-0.56c2.73-0.108,5.308,0.291,8.045-0.159c2.918-0.479,5.905-0.03,8.771-0.727
	c1.45-0.353,4.212-0.937,4.008-2.748c-0.118-1.048-0.45-1.975-0.45-3.079c0-1.007,0.091-2.05-0.17-3.035
	c-0.606-2.282-1.139-4.589-1.772-6.863c-0.89-3.198-2.593-7.249-4.744-9.819c-2.127-2.542-4.043-5.555-7.002-7.204
	c-1.68-0.936-3.249-1.775-4.798-2.925c-1.338-0.994-2.601-2.387-4.147-3.044c-1.234-0.524-2.409-1.031-3.624-1.639
	c-2.917-1.459-6.07-2.51-9.293-3.028c-3.321-0.534-6.381-1.494-9.771-0.883c-1.557,0.281-2.992,0.953-4.502,1.396
	C318.617,310.068,316.864,310.237,315.138,310.608z"/>
<path style="fill:#14DDF7;" d="M372.405,361.378c-1.209,2.689-1.518,6.03-2.318,8.859c-1.066,3.771-3.108,7.023-4.352,10.697
	c-0.683,2.017,0.111,2.17,1.957,2.613c3.303,0.792,6.258,0.539,9.628,0.542c3.992,0.004,7.834,0.387,11.82-0.099
	c3.655-0.445,7.354-0.335,11.025-0.664c2.805-0.251,5.615-0.132,8.397-0.609c2.32-0.397,4.574-0.341,6.897-0.594
	c3.499-0.381,7.77-1.245,10.865-3c4.418-2.506,5.266-8.975,5.266-13.446c0-2.896,0.267-6.476-0.931-9.213
	c-0.966-2.209-3.54-4.792-5.837-5.472c-3.608-1.068-7.449-1.412-11.19-1.66c-2.061-0.136-4.12-0.264-6.183-0.356
	c-2.502-0.112-4.868,0.256-7.347,0.392c-7.747,0.423-15.422,1.889-23.177,2.28c-0.602,0.03-1.793-0.249-2.345,0.07
	c-0.565,0.326-0.361,0.795-0.423,1.461c-0.128,1.366-0.695,2.605-0.771,3.963C373.3,358.694,373.859,360.465,372.405,361.378z"/>
<path style="fill:#008EE5;" d="M365.122,352.754c-1.535-0.39-3.098-0.632-4.682-0.684c-1.559-0.052-3.171,0.287-4.715,0.131
	c-2.937-0.298-5.491,0.622-8.343,1.369c-2.279,0.597-4.543,0.837-6.813,1.584c-2.173,0.715-3.505,2.827-4.835,4.575
	c-1.731,2.276-3.093,4.381-3.446,7.271c-0.312,2.553-0.543,5.185-0.317,7.753c0.128,1.457,0.121,3.55,1.099,4.748
	c0.953,1.17,2.72,1.27,4.065,1.633c2.312,0.624,4.417,1.073,6.838,1.163c6.434,0.239,13.042,1.159,19.461,0.245
	c4.455-0.634,5.494-5.775,7.005-9.374c1.123-2.674,1.632-5.339,2.086-8.178c0.339-2.12,0.72-4.199,0.256-6.341
	C371.92,354.67,368.639,353.647,365.122,352.754z"/>
<path d="M499.39,69.069c-16.446-21.468-39.148-35.067-66.309-36.101c-27.31-1.04-57.187,11.523-73.807,33.661
	c-2.336,3.111-4.288,6.592-5.259,10.091c-6.43,4.287-12.536,11.939-15.189,18.63c-2.01,5.069-3.213,11.231-3.038,16.726
	c0.124,3.889,1.676,8.004,1.515,11.86c-0.343,8.178-3.812,8.937-9.518,12.677c-5.214,3.418-15.182,8.983-13.673,16.766
	c2.492,12.846,24.362,2.697,25.86,17.277c1.239,12.056,2.422,25.207,7.696,36.357c4.594,9.713,14.049,11.705,23.969,12.065
	c8.98,0.326,15.629-2.192,19.314,7.671c1.711,4.582,3.198,10.348,6.065,14.441c6.189,8.835,18.899,7.765,28.319,5.95
	c13.957-2.688,28.547-8.259,41.775-13.525c9.154-3.644,14.916-9.323,12.658-19.568c-1.312-5.955-5.82-11.491-6.865-17.192
	c-1.517-8.283,8.154-14.714,12.689-20.164c9.105-10.942,16.538-22.621,20.918-36.182C514.237,116.584,515.421,89.996,499.39,69.069z
	 M466.873,220.104c-3.321,4.74-9.364,5.423-14.615,7.326c-10.831,3.925-24.579,10.922-36.33,10.294
	c-15.084-0.807-12.055-14.295-19.477-23.301c-4.597-5.579-11.43-5.545-18.093-5.509c-4.854,0.026-10.866,0.942-15.487-0.848
	c-7.198-2.788-8.083-9.681-9.732-16.1c-0.641-2.496-1.288-5.025-1.877-7.569c2.905,0.284,5.826-0.044,9.012-0.702
	c4.254-0.878,11.093-1.655,14.243-4.839c1.798-1.817,0.411-4.742-2.014-4.862c-4.172-0.207-8.292,1.874-12.243,2.941
	c-3.366,0.909-6.857,0.885-10.247,1.238c-0.228-1.419-0.421-2.84-0.544-4.263c-0.372-4.322,0.049-8.613-1.995-12.63
	c-3.294-6.47-12.151-9.015-18.953-9.602c-1.573-0.135-2.559-0.347-3.188-0.536c2.023-2.358,5.446-4.101,7.666-5.607
	c3.648-2.475,7.665-4.607,10.557-8.015c5.865-6.911,3.115-14.608,2.332-22.78c-0.893-9.322,2.029-20.924,8.339-28.901
	c0.904,2.296,2.551,4.451,5.21,6.331c9.912,7.005,22.453,5.997,34.295,5.196c-3.193,3.546-6.115,7.143-6.972,12.877
	c-1.047,7.005,2.152,12.122,8.146,15.61c3.711,2.16,8.746,2.268,12.235,4.456c6.156,3.861,2.304,12.202,1.425,18.296
	c-1.034,7.171-0.64,13.886,7.012,16.941c6.483,2.588,18.882,3.541,25.273,0.34c9.745-4.88,2.287-18.807,9.034-25.722
	c4.909-5.031,11.835-1.325,13.077,4.991c0.974,4.952-1.093,9.895-2.764,14.398c-1.34,3.612-3.33,6.602-2.922,10.652
	c0.533,5.296,4.082,10.159,8.629,13.115c-3.749,5.894-5.24,12.485-1.281,21.451C467.3,210.835,470.892,214.368,466.873,220.104z
	 M483.3,162.773c-3.32,4.642-7.371,8.65-11.029,12.618c-10.273-2.761-0.682-18.363-0.342-25.39
	c0.313-6.456-1.562-14.598-6.525-19.221c-10.893-10.149-25.618,0.993-28.269,12.638c-0.542,2.38-0.117,10.072-1.416,11.93
	c-3.255,4.658-12.554,1.642-15.112-1.269c-5.978-6.804,2.365-16.724-0.767-25.055c-2.539-6.754-8.946-7.317-15.046-9.48
	c-17.521-6.213-1.038-17.25,3.82-25.064c2.017-3.244-0.618-7.371-4.262-7.427c-9.175-0.141-26.751,4.829-34.716-1.176
	c-13.391-10.096,8.773-24.374,16.558-29.338c19.531-12.453,48.326-18.398,70.223-8.542c19.467,8.762,38.591,25.8,43.765,47.144
	C505.829,118.434,496.785,143.924,483.3,162.773z"/>
<path d="M367.072,120.481c-2.41-1.017-5.905-0.242-7.114,2.331c-0.892,1.899-2.155,3.409-2.091,5.66
	c0.073,2.574,2.334,5.517,5.198,5.198c0.595-0.066,1.149-0.176,1.682-0.317c1.298-0.104,2.565-0.613,3.519-1.587
	c1.286-1.313,1.475-2.955,2.104-4.565c0.486-1.24,0.13-3.297-0.574-4.39C369.114,121.754,368.236,120.973,367.072,120.481z"/>
<path d="M22.362,205.012c2.161,11.981,14.203,14.771,25.058,16.492c15.322,2.429,31.172,1.825,46.633,2.376
	c16.588,0.591,33.13,0.132,49.702,0.772c19.24,0.743,38.675-0.169,57.937-0.16c16.153,0.008,35.789-1.998,51.359,2.184
	c14.759,3.964,29.895,9.325,44.198,14.734c7.247,2.741,23.85,12.583,31.664,8.36c2.411-1.303,3.269-4.736,1.849-7.05
	c-5.975-9.735-15.236-17.714-23.857-25.066c-6.246-5.328-9.527-11.756-11.08-18.855c-0.194-10.026,0.363-20.398,0.797-29.945
	c0.772-16.999,1.915-33.989,2.64-51c0.924-21.696,6.19-49.817-19.415-58.304c-13.276-4.4-27.914-5.129-41.73-6.43
	c-16.942-1.595-33.75-3.626-50.744-4.774c-33.488-2.26-66.993-2.632-100.555-2.528C72.2,45.864,58.003,47.587,44.02,52.063
	c-11.731,3.755-17.194,10.351-20.246,21.883c-7.603,28.731-4.974,58.213-4.504,87.509C19.495,175.498,19.876,191.222,22.362,205.012
	z M29.083,112.196c0.245-12.922,1.744-26.236,5.576-38.639c4.463-14.443,30.2-16.496,42.888-17.137
	c56.941-2.878,114.613,2.2,171.172,8.168c8.169,0.862,16.622,1.771,24.582,3.959c9.514,2.615,14.073,7.066,15.739,16.971
	c2.357,14.008,0.198,29.514-0.719,43.623c-0.993,15.286-2.194,30.861-1.971,46.176c0.042,2.881,0.009,5.819-0.013,8.776
	c-1.801,10.545-1.377,23.746,4.282,32.069c5.19,7.635,13.022,13.031,20.089,19.195c-4.222-1.559-8.449-3.111-12.673-4.669
	c-11.423-4.214-23.201-7.4-34.733-11.29c-22.898-7.724-48.96-5.248-72.976-5.252c-27.882-0.004-55.935,0.898-83.766-0.188
	c-13.799-0.539-27.645-0.495-41.424-1.111c-6.524-0.291-13.327-0.765-19.704-2.201c-3.753-0.845-10.614-2.173-12.723-5.775
	c-2.032-3.469-0.898-11.108-1.097-14.887C30.231,163.934,28.588,138.285,29.083,112.196z"/>
<path d="M197.892,381.664c1.509-7.783-8.459-13.347-13.673-16.766c-5.706-3.741-9.175-4.5-9.518-12.677
	c-0.161-3.856,1.391-7.971,1.515-11.86c0.175-5.495-1.028-11.657-3.038-16.726c-2.653-6.691-8.759-14.343-15.189-18.63
	c-0.971-3.499-2.924-6.979-5.26-10.091c-16.62-22.138-46.497-34.701-73.808-33.661c-27.161,1.034-49.863,14.633-66.309,36.101
	c-16.032,20.927-14.848,47.515-7.12,71.441c4.38,13.561,11.813,25.24,20.918,36.181c4.535,5.45,14.206,11.881,12.689,20.164
	c-1.044,5.701-5.553,11.237-6.865,17.192c-2.258,10.245,3.505,15.924,12.658,19.568c13.229,5.266,27.818,10.837,41.775,13.525
	c9.42,1.814,22.13,2.884,28.319-5.95c2.867-4.093,4.354-9.859,6.065-14.441c3.685-9.864,10.333-7.346,19.313-7.671
	c9.92-0.36,19.375-2.352,23.969-12.065c5.273-11.15,6.457-24.301,7.696-36.357C173.53,384.36,195.4,394.51,197.892,381.664z
	 M39.731,403.677c-3.658-3.969-7.709-7.977-11.029-12.619C15.217,372.21,6.174,346.719,11.82,323.426
	c5.174-21.344,24.298-38.382,43.765-47.144c21.898-9.856,50.692-3.911,70.223,8.542c7.784,4.964,29.949,19.242,16.558,29.338
	c-7.965,6.005-25.541,1.035-34.716,1.176c-3.645,0.056-6.279,4.183-4.262,7.427c4.857,7.813,21.341,18.851,3.82,25.064
	c-6.1,2.163-12.507,2.726-15.046,9.48c-3.132,8.332,5.211,18.252-0.767,25.055c-2.558,2.911-11.857,5.928-15.112,1.269
	c-1.299-1.859-0.874-9.55-1.416-11.93c-2.651-11.646-17.376-22.787-28.269-12.638c-4.963,4.623-6.838,12.765-6.525,19.221
	C40.413,385.314,50.005,400.916,39.731,403.677z M183.481,379.964c-6.802,0.586-15.658,3.131-18.953,9.602
	c-2.045,4.017-1.623,8.307-1.995,12.63c-0.123,1.423-0.316,2.844-0.544,4.263c-3.389-0.353-6.881-0.329-10.247-1.238
	c-3.951-1.067-8.071-3.148-12.243-2.941c-2.425,0.12-3.812,3.045-2.014,4.862c3.15,3.183,9.989,3.96,14.243,4.839
	c3.186,0.658,6.107,0.985,9.012,0.702c-0.589,2.543-1.236,5.073-1.877,7.569c-1.649,6.419-2.533,13.312-9.732,16.1
	c-4.621,1.79-10.632,0.874-15.487,0.848c-6.664-0.036-13.497-0.069-18.093,5.509c-7.421,9.006-4.393,22.494-19.477,23.301
	c-11.75,0.629-25.499-6.369-36.33-10.293c-5.251-1.903-11.294-2.586-14.615-7.326c-4.02-5.736-0.427-9.269,2.25-15.332
	c3.959-8.966,2.469-15.556-1.28-21.451c4.547-2.956,8.096-7.82,8.629-13.115c0.407-4.05-1.583-7.04-2.922-10.652
	c-1.671-4.503-3.738-9.445-2.764-14.397c1.242-6.316,8.167-10.022,13.076-4.991c6.747,6.915-0.711,20.842,9.034,25.722
	c6.391,3.201,18.79,2.247,25.273-0.34c7.652-3.055,8.046-9.769,7.012-16.941c-0.879-6.095-4.732-14.436,1.425-18.297
	c3.489-2.188,8.524-2.296,12.235-4.456c5.994-3.488,9.193-8.605,8.146-15.61c-0.857-5.734-3.779-9.331-6.972-12.877
	c11.842,0.801,24.383,1.81,34.295-5.196c2.659-1.88,4.305-4.035,5.21-6.331c6.31,7.976,9.232,19.579,8.339,28.9
	c-0.783,8.172-3.533,15.869,2.332,22.78c2.892,3.408,6.909,5.54,10.557,8.015c2.22,1.506,5.643,3.249,7.666,5.607
	C186.04,379.618,185.054,379.829,183.481,379.964z"/>
<path d="M144.931,348.767c-1.165,0.491-2.042,1.273-2.724,2.331c-0.705,1.093-1.06,3.15-0.574,4.39
	c0.63,1.61,0.818,3.252,2.104,4.565c0.954,0.974,2.22,1.483,3.519,1.587c0.533,0.14,1.087,0.251,1.682,0.317
	c2.865,0.318,5.125-2.624,5.198-5.198c0.064-2.252-1.199-3.761-2.091-5.66C150.836,348.524,147.34,347.749,144.931,348.767z"/>
<path d="M467.983,280.349c-13.983-4.476-28.18-6.199-42.798-6.245c-33.561-0.105-67.066,0.267-100.555,2.527
	c-16.994,1.147-33.801,3.178-50.744,4.774c-13.816,1.301-28.454,2.029-41.73,6.43c-25.605,8.487-20.339,36.608-19.415,58.304
	c0.725,17.011,1.868,34.001,2.64,51c0.434,9.547,0.991,19.919,0.797,29.945c-1.553,7.1-4.834,13.528-11.08,18.855
	c-8.621,7.352-17.881,15.331-23.857,25.066c-1.421,2.314-0.562,5.747,1.849,7.05c7.813,4.222,24.416-5.62,31.664-8.36
	c14.302-5.409,29.439-10.77,44.198-14.734c15.57-4.182,35.206-2.176,51.359-2.184c19.262-0.009,38.697,0.902,57.937,0.16
	c16.572-0.64,33.114-0.181,49.702-0.772c15.461-0.55,31.31,0.053,46.633-2.376c10.855-1.721,22.897-4.511,25.058-16.492
	c2.487-13.789,2.867-29.513,3.092-43.555c0.47-29.296,3.1-58.777-4.504-87.509C485.176,290.7,479.714,284.104,467.983,280.349z
	 M479.294,433.154c-2.11,3.602-8.971,4.93-12.723,5.775c-6.378,1.436-13.18,1.91-19.704,2.201
	c-13.779,0.616-27.625,0.572-41.424,1.111c-27.831,1.086-55.884,0.184-83.766,0.188c-24.015,0.004-50.077-2.472-72.976,5.252
	c-11.532,3.89-23.31,7.076-34.733,11.29c-4.224,1.558-8.451,3.11-12.673,4.669c7.066-6.164,14.899-11.559,20.089-19.195
	c5.659-8.323,6.083-21.524,4.282-32.069c-0.022-2.957-0.055-5.895-0.013-8.776c0.223-15.315-0.978-30.891-1.971-46.176
	c-0.917-14.108-3.076-29.615-0.719-43.623c1.666-9.905,6.225-14.355,15.739-16.971c7.959-2.188,16.413-3.097,24.582-3.959
	c56.559-5.968,114.232-11.046,171.172-8.168c12.687,0.641,38.424,2.694,42.888,17.137c3.832,12.404,5.331,25.718,5.576,38.639
	c0.495,26.089-1.148,51.738-2.528,77.786C480.191,422.046,481.325,429.684,479.294,433.154z"/>
<path d="M134.116,145.725c4.429,3.641,4.815,3,6.125,7.816c0.331,1.216,0.492,2.57,0.613,3.956
	c-0.343,1.811-0.512,3.565-0.361,5.153c-0.974,4.796-0.705,10.827,0.865,14.785c2.441,6.158,11.112,9.347,17.235,9.315
	c7.073-0.036,11.711-4.035,14.54-10.181c1.704-3.705,3.464-9.041,2.175-13.157c1.121-5.049-1.49-11.261,1.12-15.619
	c2.016-3.365,9.775-6.953,12.806-9.862c8.549-8.205,13.752-19.362,9.011-31.089c-4.854-12.01-21.591-22.129-33.779-24.791
	c-12.91-2.819-27.041,0.826-35.115,11.635c-7.804,10.449-11.464,26.96-5.762,39.114
	C126.009,137.958,129.742,142.129,134.116,145.725z M166.264,174.826c-2.859,5.069-7.594,5.763-12.855,3.866
	c-5.138-1.853-6.178-4.87-6.42-9.35c0.101,0.019,0.191,0.045,0.295,0.063c5.928,0.977,12.71-0.825,18.753-0.719
	c0.751,0.013,1.423,0.05,2.061,0.081C167.851,170.78,167.416,172.783,166.264,174.826z M155.6,144.852
	c-1.083-6.465-4.842-12.908-5.227-19.504c3.97-0.791,8.14-2.106,12.074-2.023c3.738,0.079,2.032-1.23,1.508,2.498
	c-0.415,2.947-1.287,6.068-2.024,8.942c-1.551,6.049-3.492,11.923-4.967,17.909C156.537,149.997,156.019,147.352,155.6,144.852z
	 M128.722,114.731c2.208-16.059,13.707-28.183,30.826-26.526c14.942,1.447,39.902,17.174,32.154,34.805
	c-4.033,9.177-12.618,12.674-19.747,18.678c-5.96,5.021-1.528,9.967-3.651,16.438c-1.364,4.156-1.855,3.187-6.466,3.271
	c-0.351,0.007-0.742,0.049-1.159,0.113c2.318-7.051,3.511-15.139,5.472-22.167c1.577-5.648,4.929-14.18,3.123-20.039
	c-0.244-0.789-0.906-1.619-1.771-1.771c-5.977-1.049-13.651,2.633-19.699,3.171c-1.48,0.132-2.377,1.063-2.534,2.534
	c-0.706,6.592,2.74,12.395,4.36,18.632c1.797,6.921,2.426,14.031,4.292,20.94c-1.112,0.095-2.132,0.046-2.904-0.338
	c-3.193-1.588-2.106-4.084-2.314-6.997c-0.721-10.127-6.29-11.569-12.601-17.714C129.599,131.428,127.523,123.444,128.722,114.731z"
	/>
<path d="M429.976,349.109c-10.366-5.714-27.103-2.988-39.649-0.769c-4.924-0.057-9.854-0.042-14.807,0.057
	c-4.666-26.431-27.423-50.556-58.104-42.831c-22.475,5.66-35.395,25.727-36.757,47.255c-1.437,8.181-0.796,16.754,2.566,25.257
	c10.472,26.487,42.254,32.447,66.621,21.827c7.381-3.217,13.078-7.752,17.275-13.111c12.929,0.087,25.795-1.023,38.742-1.779
	c8.878-0.519,25.829,1.132,29.467-9.361C437.871,368.323,437.723,353.378,429.976,349.109z M304.449,392.583
	c-17.638-10.365-20.787-31.743-14.248-49.805c7.148-19.745,24.109-35.255,46.303-30.283c8.642,1.936,15.792,7.108,21.09,14.106
	c1.389,1.834,11.518,21.976,10.721,22.006c-1.763,0.067-3.525,0.133-5.299,0.226c-8.026,0.422-25.959-2.996-31.307,4.245
	c-2.162,2.928-1.733,7.825-2.107,11.266c-0.548,5.041-2.908,12.232,0.155,16.889c4.277,6.502,17.867,5.237,25.805,5.243
	C342.158,398.459,321.245,402.454,304.449,392.583z M361.748,379.61c-2.755-0.073-5.508-0.177-8.257-0.332
	c-7.783-0.441-17.079,1.984-17.935-6.867c-0.478-4.939,0.528-13.498,5.489-15.803c3.49-1.622,10.816-0.41,14.751-0.568
	c4.418-0.177,8.827-0.352,13.241-0.53c0.031,1,0.041,2.001,0.006,3.003C368.767,366.459,366.055,373.62,361.748,379.61z
	 M428.644,371.136c-2.276,6.43-8.069,5.74-14.351,6.291c-14.169,1.242-28.442,2.196-42.689,2.27
	c3.73-7.495,5.184-15.975,4.707-24.48c3.04-0.122,6.084-0.246,9.124-0.365c0.016-0.001,0.028,0.008,0.045,0.006
	c0.068-0.005,0.137-0.011,0.205-0.016c11.524-0.452,23.049-0.88,34.598-1.237c0.09-0.003,0.153-0.042,0.237-0.053
	c1.597,0.268,2.991,0.678,3.997,1.307C428.888,357.592,430.347,366.327,428.644,371.136z"/>
<path d="M375.509,312.094c18.631,2.926,39.03,3.199,57.753,1.251c3.333-0.347,3.348-4.86,0-5.198
	c-18.481-1.866-38.686-1.667-57.219,0C373.975,308.333,373.099,311.716,375.509,312.094z"/>
<path d="M383.121,319.945c-2.067,0.186-2.944,3.568-0.534,3.947c18.631,2.927,39.03,3.199,57.753,1.251
	c3.333-0.347,3.348-4.86,0-5.198C421.859,318.079,401.654,318.278,383.121,319.945z"/>
<path d="M451.548,332.333c-18.481-1.866-38.686-1.667-57.219,0c-2.067,0.186-2.944,3.568-0.534,3.947
	c18.631,2.926,39.03,3.199,57.753,1.251C454.881,337.184,454.896,332.671,451.548,332.333z"/>
<g>
</g>
<g>
</g>
<g>
</g>
<g>
</g>
<g>
</g>
<g>
</g>
<g>
</g>
<g>
</g>
<g>
</g>
<g>
</g>
<g>
</g>
<g>
</g>
<g>
</g>
<g>
</g>
<g>
</g>
</svg>
